<svg width="38" height="46" viewBox="0 0 38 46" fill="none" xmlns="http://www.w3.org/2000/svg">
<rect x="0.25" y="0.25" width="37.5" height="45.5" rx="1.75" stroke="#EC9922" stroke-width="0.5"/>
<path fill-rule="evenodd" clip-rule="evenodd" d="M14.8533 23.3666L25.6044 38.1629L27.496 33.024L32.9676 32.821L22.2165 18.0247L14.8533 23.3666Z" fill="#EC9922"/>
<path fill-rule="evenodd" clip-rule="evenodd" d="M22.2165 18.0247L14.8533 23.3667L21.7704 32.883C22.256 32.6179 22.8488 32.584 23.391 32.821L25.2374 33.622C25.5932 33.7743 25.9659 33.7518 26.299 33.5598C26.6322 33.3681 26.8354 33.0579 26.8807 32.6742L27.1064 30.6718C27.2081 29.803 27.8744 29.1374 28.7439 29.0359L30.1048 28.8836L22.2165 18.0247Z" fill="#C37A24"/>
<path fill-rule="evenodd" clip-rule="evenodd" d="M15.7511 18.0247L23.1142 23.3667L12.3632 38.1628L10.4715 33.024L5 32.821L15.7511 18.0247Z" fill="#EC9922"/>
<path fill-rule="evenodd" clip-rule="evenodd" d="M15.7512 18.0247L23.1142 23.3667L16.2085 32.8661C15.7286 32.6179 15.1526 32.5896 14.6218 32.821L12.7754 33.622C12.4197 33.7743 12.047 33.7518 11.7138 33.5598C11.3807 33.3681 11.1773 33.0579 11.1322 32.6742L10.9008 30.6718C10.8047 29.803 10.1385 29.1374 9.26322 29.0359L7.86847 28.878L15.7512 18.0247Z" fill="#C37A24"/>
<path fill-rule="evenodd" clip-rule="evenodd" d="M27.5865 13.8109L29.3482 14.014C29.6869 14.0535 29.9637 14.234 30.1331 14.5274C30.3024 14.8206 30.3194 15.1479 30.1839 15.4582L29.478 17.0883C29.1675 17.7934 29.3877 18.5944 30.0031 19.0514L31.4318 20.1119C31.7084 20.3093 31.8552 20.6026 31.8552 20.9412C31.8552 21.2851 31.7084 21.5729 31.4318 21.7759L30.0031 22.8308C29.3877 23.2934 29.1675 24.0945 29.478 24.7996L30.1839 26.4298C30.3194 26.74 30.3024 27.0672 30.1331 27.3606C29.9637 27.6538 29.6869 27.8344 29.3482 27.8738L27.5865 28.077C26.8186 28.1616 26.2312 28.7482 26.1466 29.5154L25.9432 31.2753C25.9038 31.6138 25.723 31.8902 25.4294 32.0595C25.1359 32.2287 24.8083 32.2455 24.4977 32.1102L22.8659 31.405C22.1601 31.1004 21.3583 31.3148 20.8953 31.9297L19.8393 33.3568C19.6361 33.6332 19.348 33.7799 19.0036 33.7799C18.6648 33.7799 18.3711 33.6332 18.1736 33.3568L17.112 31.9297C16.6546 31.3148 15.8527 31.1004 15.1469 31.405L13.5151 32.1102C13.2045 32.2455 12.877 32.2287 12.5834 32.0595C12.2898 31.8902 12.1091 31.6138 12.0696 31.2753L11.8662 29.5154C11.7816 28.7482 11.1943 28.1616 10.4264 28.077L8.65898 27.8738C8.32018 27.8344 8.0492 27.6538 7.87974 27.3606C7.7104 27.0672 7.68782 26.74 7.82337 26.4298L8.53478 24.7996C8.83967 24.0945 8.62518 23.2934 8.00405 22.8308L6.58112 21.7759C6.30442 21.5729 6.15753 21.2851 6.15753 20.9412C6.15753 20.6026 6.30442 20.3093 6.58112 20.1119L8.00405 19.0514C8.62518 18.5944 8.83967 17.7934 8.53478 17.0883L7.82337 15.4582C7.68782 15.1479 7.7104 14.8206 7.87974 14.5274C8.0492 14.234 8.32018 14.0535 8.65898 14.014L10.4264 13.8109C11.1943 13.7263 11.7816 13.1396 11.8662 12.3725L12.0696 10.6069C12.1091 10.274 12.2898 9.99761 12.5834 9.82843C12.877 9.65925 13.2045 9.6422 13.5151 9.77761L15.1469 10.4827C15.8527 10.7874 16.6546 10.573 17.112 9.95251L18.1736 8.531C18.3711 8.25457 18.6648 8.10794 19.0036 8.10794C19.348 8.10794 19.6361 8.25457 19.8393 8.531L20.8953 9.95251C21.3583 10.573 22.1601 10.7874 22.8659 10.4827L24.4977 9.77761C24.8083 9.6422 25.1359 9.65925 25.4294 9.82843C25.723 9.99761 25.9038 10.274 25.9432 10.6069L26.1466 12.3725C26.2312 13.1396 26.8186 13.7263 27.5865 13.8109Z" fill="#FFDB70"/>
<path fill-rule="evenodd" clip-rule="evenodd" d="M21.0037 21.8112C21.0037 21.8017 21.0152 21.797 21.0219 21.8038L21.6439 22.4361C21.6479 22.4401 21.648 22.4464 21.6443 22.4505L21.0222 23.1443C21.0156 23.1515 21.0037 23.147 21.0037 23.1372V21.8112ZM15.9172 14.7908L16.3423 16.627L16.6422 17.9144C16.649 17.9432 16.6582 17.971 16.6685 17.998L17.7378 22.492C17.7381 22.4927 17.7382 22.4936 17.7382 22.4944V25.2167C17.7382 25.2176 17.7381 25.2185 17.7378 25.2192L16.8085 29.0675C16.7035 29.5024 16.9712 29.9402 17.4067 30.045C17.4706 30.0605 17.5346 30.0678 17.5975 30.0678C17.9636 30.0678 18.2957 29.8186 18.3853 29.4474L19.3601 25.4104C19.3628 25.3996 19.3782 25.3996 19.3809 25.4104L20.3559 29.4474C20.4456 29.8187 20.7777 30.0678 21.1437 30.0678C21.2067 30.0678 21.2708 30.0605 21.3345 30.045C21.77 29.9402 22.0378 29.5024 21.9329 29.0675L21.0039 25.2227C21.0037 25.2218 21.0037 25.2211 21.0037 25.2202V24.8534C21.0037 24.848 21.0077 24.8435 21.013 24.8431C21.1674 24.8269 21.3166 24.7588 21.4282 24.6342L23.423 22.4095C23.4269 22.4053 23.4267 22.399 23.4227 22.395L20.9196 19.8504C20.6221 19.5481 20.353 19.3672 19.4522 19.3672H18.3364C18.3315 19.3672 18.3272 19.3638 18.3261 19.359L17.2133 14.7908H15.9172Z" fill="#EC9922"/>
<path fill-rule="evenodd" clip-rule="evenodd" d="M19.6614 19.0616C20.5014 19.0616 21.1813 18.385 21.1813 17.5426C21.1813 16.6998 20.5014 16.0242 19.6614 16.0242C18.821 16.0242 18.1406 16.6998 18.1406 17.5426C18.1406 18.385 18.821 19.0616 19.6614 19.0616Z" fill="#EC9922"/>
<path fill-rule="evenodd" clip-rule="evenodd" d="M17.0093 21.3093L16.8046 21.1047Z" fill="#EC9922"/>
<path fill-rule="evenodd" clip-rule="evenodd" d="M17.3894 25.311V22.5068L17.14 21.1917L16.9506 20.3963C16.3405 21.0672 15.8549 21.9832 15.3782 22.8841C14.8205 23.9378 14.2437 25.0274 13.4942 25.6689L13.1537 25.9604L13.5357 26.195C14.4485 26.7555 15.6554 27.0643 16.9338 27.0643C16.9573 27.0643 16.9802 27.0624 17.0039 27.0622L17.3894 25.311C17.3799 25.3113 17.165 26.3622 17.1555 26.3625L17.3894 25.311Z" fill="#EC9922"/>
<path fill-rule="evenodd" clip-rule="evenodd" d="M14.1094 14.5366H19.5114C19.6072 14.5366 19.685 14.6143 19.685 14.7097C19.685 14.8054 19.6072 14.8831 19.5114 14.8831H14.1094C14.0137 14.8831 13.9359 14.8054 13.9359 14.7097C13.9359 14.6143 14.0137 14.5366 14.1094 14.5366Z" fill="#EC9922"/>
<path fill-rule="evenodd" clip-rule="evenodd" d="M14.6657 14.423C14.6657 13.2636 15.6049 12.3193 16.7596 12.3193C17.9142 12.3193 18.8534 13.2636 18.8534 14.423" fill="#EC9922"/>
<path fill-rule="evenodd" clip-rule="evenodd" d="M16.7058 11.8471C16.8194 11.8471 16.9151 11.9428 16.9151 12.0563C16.9151 12.1698 16.8253 12.2655 16.7058 12.2655C16.592 12.2655 16.4963 12.1698 16.4963 12.0563C16.5024 11.9428 16.592 11.8471 16.7058 11.8471Z" fill="#EC9922"/>
<path fill-rule="evenodd" clip-rule="evenodd" d="M19.7361 21.425L19.9895 22.1328L19.3697 21.7063L18.7735 22.1658L18.9883 21.4452L18.3669 21.0208L19.1189 21.0023L19.3309 20.2808L19.5812 20.9898L20.333 20.9682L19.7361 21.425Z" fill="#FFDB70"/>
</svg>
